<?xml version="1.0" standalone="no"?>
<!DOCTYPE svg PUBLIC "-//W3C//DTD SVG 20010904//EN"
 "http://www.w3.org/TR/2001/REC-SVG-20010904/DTD/svg10.dtd">
<svg version="1.0" xmlns="http://www.w3.org/2000/svg"
 width="400.000000pt" height="400.000000pt" viewBox="0 0 400.000000 400.000000"
 preserveAspectRatio="xMidYMid meet">
<metadata>
Created by potrace 1.11, written by Peter Selinger 2001-2013
</metadata>
<g transform="translate(0.000000,400.000000) scale(0.100000,-0.100000)"
fill="#000000" stroke="none">
<path d="M1758 3986 c-16 -8 -28 -10 -28 -5 0 6 -6 7 -16 1 -9 -5 -25 -7 -35
-5 -12 3 -19 0 -19 -8 0 -11 -2 -11 -10 1 -5 8 -10 10 -10 5 0 -9 -21 -15 -67
-18 -7 0 -13 -4 -13 -9 0 -4 -5 -8 -11 -8 -5 0 -7 6 -3 13 6 8 3 8 -9 -2 -9
-7 -24 -11 -32 -7 -9 3 -13 2 -10 -4 6 -10 -7 -14 -32 -11 -6 1 -14 -3 -18 -8
-3 -6 -12 -8 -20 -4 -8 3 -15 1 -15 -5 0 -6 -8 -9 -17 -8 -10 2 -21 -1 -24 -6
-3 -5 -15 -10 -27 -11 -12 0 -24 -8 -27 -15 -4 -11 -8 -12 -19 -3 -11 10 -19
7 -37 -11 -12 -13 -19 -17 -15 -10 4 6 2 12 -3 12 -6 0 -11 -7 -11 -16 0 -13
-3 -14 -15 -4 -12 10 -16 9 -21 -4 -3 -9 -10 -13 -15 -10 -5 3 -9 1 -9 -5 0
-6 -7 -7 -17 -4 -12 5 -14 3 -8 -7 6 -10 4 -12 -8 -7 -10 3 -17 3 -17 -1 0 -8
-62 -38 -72 -34 -5 1 -8 -3 -8 -9 0 -5 -15 -17 -32 -25 -67 -32 -78 -39 -78
-51 0 -7 -9 -10 -20 -8 -11 2 -18 0 -15 -6 4 -5 0 -9 -8 -9 -8 0 -18 -7 -21
-16 -3 -8 -10 -13 -15 -10 -5 3 -12 -1 -15 -10 -4 -9 -13 -14 -21 -10 -8 3
-14 1 -12 -4 3 -12 -64 -61 -74 -54 -5 3 -6 -2 -3 -10 6 -14 -5 -21 -28 -17
-5 0 -8 -4 -8 -10 0 -14 -47 -59 -61 -59 -5 0 -8 -3 -6 -8 1 -4 -2 -9 -8 -11
-15 -6 -75 -71 -75 -82 0 -6 -5 -7 -10 -4 -6 3 -10 -1 -10 -10 0 -9 -5 -13
-10 -10 -6 3 -10 0 -10 -7 0 -8 -9 -20 -20 -28 -11 -8 -20 -20 -20 -28 0 -7
-5 -10 -12 -6 -8 5 -9 2 -5 -9 4 -10 2 -16 -6 -14 -7 1 -11 -3 -10 -10 2 -7
-6 -17 -17 -23 -11 -6 -18 -15 -15 -19 3 -5 -2 -12 -11 -15 -8 -3 -13 -10 -10
-14 3 -4 -6 -16 -19 -26 -14 -10 -22 -22 -19 -27 3 -5 0 -9 -5 -9 -6 0 -10 -6
-9 -12 2 -7 -3 -12 -10 -10 -6 1 -11 -1 -11 -5 3 -18 -2 -31 -21 -53 -11 -12
-17 -27 -14 -31 3 -5 -2 -9 -11 -9 -9 0 -13 -4 -10 -10 3 -5 1 -10 -5 -10 -6
0 -8 -4 -5 -10 3 -5 1 -10 -6 -10 -7 0 -10 -3 -6 -6 3 -4 -5 -27 -19 -51 -13
-24 -21 -50 -18 -56 4 -7 4 -9 -1 -5 -9 9 -57 -101 -49 -114 3 -4 0 -8 -5 -8
-6 0 -10 -6 -9 -12 2 -7 -1 -12 -7 -11 -5 1 -11 -8 -11 -20 -2 -25 -5 -37 -34
-141 -12 -42 -18 -81 -14 -88 4 -7 3 -8 -4 -4 -12 7 -17 -11 -13 -43 2 -8 -2
-10 -11 -5 -7 4 -4 -3 6 -15 14 -15 15 -20 5 -16 -11 4 -15 -1 -16 -17 -1 -79
-3 -89 -15 -82 -9 5 -9 2 1 -9 9 -12 10 -21 3 -29 -15 -19 -15 -30 0 -39 8 -5
8 -9 2 -9 -16 0 -16 -312 0 -322 8 -6 7 -8 -1 -8 -7 0 -13 -5 -13 -11 0 -5 4
-8 9 -5 11 7 9 -13 -2 -31 -5 -8 -3 -13 3 -13 6 0 10 -10 9 -22 -2 -13 1 -34
5 -47 5 -14 9 -39 11 -56 1 -17 5 -38 10 -45 5 -9 4 -11 -3 -6 -8 5 -10 2 -6
-8 3 -9 9 -16 13 -16 4 0 6 -13 5 -30 -1 -16 3 -30 8 -30 6 0 8 -11 6 -25 -3
-13 -2 -23 1 -21 4 3 11 -7 18 -20 6 -13 7 -22 2 -18 -5 3 -9 0 -9 -5 0 -6 4
-11 10 -11 5 0 7 -7 4 -15 -4 -8 -1 -15 5 -15 6 0 8 -7 5 -15 -4 -8 -2 -15 4
-15 6 0 9 -8 8 -18 -2 -9 1 -20 7 -23 5 -4 10 -20 11 -37 0 -17 4 -28 7 -26 4
2 10 -3 13 -12 4 -10 2 -13 -7 -9 -6 4 -3 -1 7 -9 11 -9 16 -16 11 -16 -5 0 0
-7 11 -15 14 -11 16 -15 4 -15 -13 -1 -13 -2 0 -13 8 -7 16 -19 18 -27 2 -8 8
-18 14 -21 6 -4 7 -12 4 -18 -4 -6 -3 -11 3 -11 6 0 7 -7 4 -17 -4 -11 -3 -14
5 -9 7 4 12 2 12 -4 0 -6 7 -18 15 -27 8 -8 13 -19 10 -24 -4 -5 1 -9 9 -9 9
0 15 -3 15 -7 -3 -20 3 -34 24 -56 12 -12 23 -29 25 -37 2 -8 8 -17 13 -18 5
-2 7 -8 3 -13 -3 -5 2 -9 11 -9 11 0 15 -5 11 -16 -3 -8 -2 -13 3 -10 5 3 11
-3 14 -14 3 -11 13 -20 22 -20 9 0 14 -4 10 -9 -3 -5 1 -16 9 -24 8 -8 12 -17
9 -21 -4 -3 1 -6 10 -6 9 0 16 -3 14 -8 -1 -4 19 -29 45 -56 26 -27 45 -54 41
-60 -3 -6 -3 -8 1 -4 7 5 38 -19 100 -77 11 -11 24 -19 28 -18 5 2 8 -4 8 -12
0 -8 12 -22 28 -32 15 -10 32 -24 38 -32 6 -8 16 -11 22 -7 7 4 12 1 12 -8 0
-8 9 -18 20 -21 11 -3 20 -11 20 -16 0 -5 7 -9 15 -9 8 0 15 -4 15 -8 0 -11
56 -43 64 -35 3 3 6 -1 6 -10 0 -15 5 -18 26 -16 3 0 14 -11 25 -25 11 -14 26
-23 33 -20 8 3 20 -3 27 -14 8 -10 24 -18 36 -17 12 1 20 -2 17 -7 -3 -4 4 -8
15 -8 12 0 21 -4 21 -10 0 -5 7 -10 15 -10 8 0 15 -4 15 -10 0 -5 7 -7 15 -4
8 4 15 1 15 -6 0 -6 4 -9 9 -6 5 3 12 -2 15 -11 6 -15 8 -15 16 -3 8 12 10 12
10 1 0 -7 6 -11 15 -7 8 3 15 0 15 -6 0 -6 3 -8 7 -5 3 4 15 -1 26 -10 11 -10
17 -12 13 -6 -4 7 -3 13 3 13 5 0 11 -5 13 -11 2 -5 10 -11 18 -12 8 -2 21 -6
28 -10 6 -5 12 -5 12 -1 0 3 10 0 23 -8 12 -8 38 -15 57 -16 19 -2 37 -6 40
-10 3 -4 15 -7 28 -6 12 1 22 -2 22 -7 0 -5 7 -6 15 -3 8 4 15 2 15 -3 0 -8
15 -10 108 -16 17 -1 32 -5 32 -9 0 -3 8 -5 18 -3 9 1 23 -3 31 -9 12 -9 13
-8 6 4 -8 13 -7 13 8 1 11 -9 17 -10 17 -2 0 6 5 11 11 11 5 0 7 -5 4 -10 -3
-5 -1 -10 4 -10 6 0 11 6 11 13 0 8 3 9 8 1 10 -16 307 -20 297 -4 -6 9 -2 9
13 1 27 -14 35 -14 26 2 -6 9 -4 9 8 -1 11 -9 18 -10 23 -2 9 15 28 13 19 -2
-4 -7 2 -4 14 6 13 12 22 14 22 7 0 -8 5 -9 16 -3 9 5 25 7 35 5 12 -3 19 0
19 8 0 11 2 11 10 -1 5 -8 10 -10 10 -5 0 9 21 15 68 18 6 0 12 4 12 9 0 4 5
8 11 8 5 0 7 -6 3 -13 -6 -8 -3 -8 9 2 9 7 24 11 32 7 9 -3 13 -2 10 4 -6 9 8
14 28 11 4 -1 16 3 26 8 21 11 66 23 98 25 12 0 21 5 20 11 -1 5 4 9 11 8 6
-2 12 2 12 8 0 5 4 7 10 4 5 -3 24 2 42 12 18 9 39 16 46 15 6 -2 12 2 12 8 0
5 9 10 21 10 11 0 18 4 15 8 -3 5 0 9 7 9 23 1 41 8 59 25 10 10 24 18 30 18
9 0 8 -4 -2 -10 -8 -5 -10 -10 -5 -10 6 0 18 9 28 20 9 11 24 20 32 20 9 0 13
5 10 10 -3 6 -1 10 4 10 18 0 26 3 39 17 8 7 18 11 23 7 5 -3 8 0 7 8 -2 7 3
12 10 11 6 -2 12 2 12 7 0 5 4 9 9 7 5 -1 18 9 30 22 12 13 21 20 21 15 0 -5
7 0 16 11 8 11 17 19 19 18 12 -7 26 -2 21 6 -3 5 2 15 11 22 14 12 16 12 9
-1 -4 -9 -1 -8 7 2 8 10 17 18 20 18 13 0 46 34 41 42 -3 4 1 8 9 8 8 0 18 7
21 16 3 8 10 12 16 9 5 -3 10 1 10 9 0 9 4 16 8 16 13 0 87 73 95 93 3 9 14
17 23 17 10 0 14 3 11 7 -4 3 4 16 18 28 13 13 21 26 17 31 -4 4 1 4 11 1 10
-4 16 -3 13 2 -6 8 28 59 49 73 5 4 6 8 1 8 -5 0 1 9 13 19 12 11 22 22 22 25
-3 20 1 25 14 19 9 -3 15 -2 14 3 -4 21 2 35 24 55 12 12 15 18 7 14 -13 -8
-13 -7 0 11 8 10 21 25 28 32 7 8 10 18 7 23 -4 5 1 9 10 9 9 0 13 5 10 10 -3
6 -1 10 5 10 6 0 8 5 5 10 -3 6 -1 10 5 10 6 0 9 3 7 8 -7 11 29 72 39 64 4
-4 2 1 -5 11 -11 14 -11 17 1 17 7 0 14 10 15 22 1 11 7 24 14 28 6 5 8 13 4
20 -6 9 -4 11 5 5 10 -6 12 -4 7 8 -3 9 0 23 9 31 10 11 11 17 3 22 -9 5 -8
10 2 18 8 6 16 20 17 31 2 11 7 22 12 25 4 3 6 13 4 23 -1 9 2 17 6 17 5 0 9
8 9 18 2 46 6 62 14 62 5 0 7 7 3 15 -3 8 -1 15 4 15 5 0 7 7 4 15 -4 8 -2 15
3 15 5 0 10 10 10 23 1 12 5 40 8 62 4 22 7 50 8 63 0 12 4 22 7 22 4 0 6 15
5 33 -2 17 1 37 5 42 13 16 13 27 -2 36 -7 5 -8 9 -2 9 7 0 12 47 13 141 1
102 -1 139 -9 134 -7 -4 -6 2 2 14 11 18 11 23 -2 31 -10 6 -11 10 -2 10 6 0
12 5 12 11 0 5 -4 8 -9 5 -11 -7 -9 13 2 32 5 7 4 12 -3 12 -5 0 -10 12 -9 28
1 15 -2 38 -8 52 -5 14 -9 42 -8 63 0 20 -2 37 -6 37 -3 0 -6 6 -7 13 0 6 -3
23 -7 37 -3 14 -7 30 -8 35 -2 6 -7 16 -11 24 -7 10 -6 12 4 6 8 -5 3 7 -10
25 -13 18 -19 30 -12 26 7 -4 12 -2 12 3 0 6 -4 11 -10 11 -5 0 -7 7 -4 15 4
8 1 15 -5 15 -6 0 -8 7 -5 15 4 8 2 15 -4 15 -6 0 -9 8 -8 18 2 9 -1 20 -7 23
-5 4 -10 20 -11 37 0 17 -4 28 -7 26 -4 -2 -10 3 -13 12 -4 10 -2 13 7 8 6 -4
2 3 -10 15 -25 24 -30 36 -10 26 6 -4 3 1 -7 9 -11 9 -16 16 -10 16 5 0 0 7
-10 15 -14 11 -16 15 -5 15 10 1 9 5 -5 15 -11 8 -16 15 -10 15 5 0 2 5 -6 10
-13 9 -13 10 0 10 12 1 11 3 -2 11 -10 5 -18 16 -18 23 0 8 -7 19 -15 26 -8 7
-12 16 -9 21 3 5 0 9 -6 9 -6 0 -14 8 -17 18 -4 9 -14 23 -22 30 -9 8 -11 11
-4 7 7 -3 0 12 -14 35 -15 22 -30 40 -35 40 -4 0 -8 5 -8 10 0 11 -11 26 -47
65 -14 16 -17 26 -10 29 8 3 8 5 -1 5 -16 1 -43 27 -36 34 3 3 -4 10 -15 17
-12 6 -19 15 -17 19 3 4 -6 13 -19 19 -14 7 -25 16 -25 21 0 13 -67 81 -73 74
-3 -2 -8 5 -12 16 -3 12 -11 19 -16 16 -5 -4 -9 2 -9 11 0 10 -3 14 -6 11 -4
-3 -22 9 -41 28 -19 19 -39 35 -45 35 -5 0 -6 5 -2 12 4 6 3 8 -4 4 -6 -3 -13
-2 -17 4 -4 6 -11 7 -17 4 -7 -4 -8 -2 -4 4 4 7 -3 17 -18 24 -14 6 -26 15
-26 20 0 4 -7 8 -15 8 -8 0 -15 4 -15 8 0 5 -18 20 -40 35 -23 14 -38 21 -35
14 4 -7 -1 -3 -9 7 -9 11 -16 16 -16 12 0 -5 -9 3 -21 18 -11 14 -25 23 -31
20 -6 -4 -17 1 -25 11 -7 11 -13 15 -13 11 0 -5 -7 -2 -17 5 -9 8 -19 14 -22
14 -3 0 -5 3 -4 7 1 3 -5 5 -15 4 -9 -2 -23 3 -30 11 -8 7 -17 11 -22 8 -5 -3
-10 0 -12 6 -2 6 -15 12 -30 12 -14 1 -24 5 -21 10 2 4 -5 7 -17 7 -14 0 -19
4 -14 13 4 6 4 9 -1 5 -4 -4 -15 -2 -23 5 -13 10 -14 9 -7 -3 7 -12 6 -13 -7
-3 -8 7 -18 10 -21 6 -4 -3 -7 -1 -7 6 0 7 -4 10 -8 7 -5 -3 -20 1 -35 9 -15
8 -27 11 -27 8 0 -3 -10 1 -22 9 -13 8 -39 15 -58 16 -19 2 -37 6 -40 10 -3 4
-15 7 -27 6 -13 -1 -23 2 -23 7 0 5 -7 6 -15 3 -8 -4 -15 -1 -15 6 0 7 -7 10
-17 6 -9 -4 -20 -1 -25 6 -6 11 -8 10 -8 0 0 -7 -4 -10 -10 -7 -9 6 -71 17
-100 17 -8 1 -21 6 -29 12 -12 9 -13 8 -6 -4 8 -13 7 -13 -8 -1 -11 9 -17 10
-17 2 0 -6 -5 -11 -11 -11 -5 0 -7 5 -4 10 3 6 1 10 -4 10 -6 0 -11 -6 -11
-12 0 -10 -2 -10 -8 -2 -8 14 -322 16 -322 3 0 -5 -5 -9 -11 -9 -5 0 -7 5 -4
10 3 6 1 10 -4 10 -6 0 -11 -4 -11 -10 0 -5 -5 -10 -11 -10 -5 0 -7 5 -4 10 8
13 5 13 -27 -4z m65 -246 c4 0 6 3 4 8 -3 4 14 7 38 7 43 0 43 0 27 -19 -9
-11 -12 -16 -6 -13 14 8 26 -30 13 -39 -5 -3 -5 -13 1 -25 6 -10 8 -19 4 -19
-3 0 -2 -6 2 -12 5 -7 9 -22 9 -33 0 -11 3 -22 7 -25 4 -4 9 -22 10 -42 2 -20
6 -34 11 -31 4 2 12 -9 18 -26 6 -18 16 -28 22 -24 5 3 7 1 3 -5 -3 -6 -2 -13
4 -17 6 -4 8 -11 5 -16 -4 -5 0 -9 7 -10 7 0 4 -4 -7 -9 -13 -5 -26 -2 -38 8
-16 14 -17 14 -12 0 5 -13 2 -15 -16 -11 -15 4 -20 3 -15 -5 5 -8 2 -10 -8 -6
-9 3 -13 11 -9 18 4 6 -1 5 -11 -3 -15 -12 -49 -21 -93 -24 -7 0 -13 -4 -13
-9 0 -4 -3 -7 -7 -6 -16 3 -63 -15 -63 -24 0 -5 -4 -7 -9 -3 -5 3 -12 1 -16
-5 -4 -6 -11 -8 -16 -5 -5 4 -9 1 -9 -4 0 -6 -7 -11 -15 -11 -8 0 -15 -4 -15
-10 0 -5 -9 -10 -21 -10 -11 0 -17 -4 -14 -10 3 -5 -3 -10 -14 -10 -12 0 -20
-3 -19 -7 2 -5 0 -9 -4 -11 -4 -1 -19 -14 -34 -27 -15 -14 -31 -22 -37 -18 -6
3 -7 1 -3 -5 4 -7 2 -12 -4 -12 -6 0 -8 -4 -5 -10 3 -5 -1 -10 -10 -10 -9 0
-13 -4 -10 -10 3 -5 0 -10 -7 -10 -17 0 -41 -37 -33 -51 4 -5 1 -8 -7 -7 -7 2
-12 -3 -10 -9 1 -7 -6 -13 -15 -14 -12 0 -13 -2 -5 -6 9 -3 7 -10 -9 -24 -12
-10 -18 -19 -14 -19 5 0 1 -6 -10 -13 -10 -8 -15 -19 -11 -25 6 -11 -6 -16
-26 -13 -5 0 -8 -5 -8 -12 0 -8 -4 -7 -10 3 -6 9 -10 10 -10 3 0 -6 -9 -10
-20 -8 -11 2 -20 -1 -20 -6 0 -6 -6 -6 -18 0 -19 10 -57 -10 -44 -24 4 -5 2
-5 -5 -1 -7 4 -21 -2 -33 -14 -11 -11 -20 -17 -20 -13 0 4 -7 -2 -16 -13 -8
-10 -12 -13 -8 -5 5 9 3 12 -4 7 -7 -4 -12 -14 -12 -22 0 -8 -5 -12 -11 -9 -6
4 -13 -2 -16 -13 -3 -11 -11 -23 -19 -26 -8 -3 -14 -14 -14 -23 0 -10 -7 -28
-15 -39 -8 -12 -11 -24 -8 -28 3 -3 2 -6 -3 -6 -5 0 -10 -32 -10 -70 -1 -39 2
-70 6 -70 3 0 6 -15 5 -34 0 -19 4 -34 10 -33 5 1 9 -4 8 -10 -2 -7 2 -13 8
-13 5 0 8 -4 4 -9 -6 -11 77 -101 94 -101 6 0 11 -4 11 -10 0 -5 7 -10 16 -10
8 0 12 -5 8 -11 -4 -8 -1 -8 12 -1 26 13 87 -27 74 -48 -5 -9 -5 -19 2 -27 7
-9 7 -13 0 -13 -7 0 -9 -7 -5 -17 5 -12 3 -14 -8 -8 -11 6 -11 5 -3 -4 9 -9 9
-23 2 -48 -7 -26 -6 -38 2 -43 8 -5 7 -9 -5 -14 -10 -3 -13 -11 -9 -18 5 -7 7
-29 5 -48 -2 -19 -4 -46 -5 -60 -1 -14 -5 -30 -9 -37 -4 -7 0 -16 10 -22 11
-6 13 -11 5 -11 -7 0 -11 -4 -7 -9 3 -5 6 -48 7 -94 1 -47 5 -84 8 -82 3 2 6
-18 7 -43 4 -102 7 -121 15 -116 4 3 6 -9 4 -25 -2 -17 1 -31 6 -31 5 0 6 -5
3 -10 -4 -6 -1 -18 7 -27 11 -14 11 -15 0 -9 -11 6 -11 4 -3 -13 6 -12 16 -30
22 -42 7 -15 7 -19 0 -14 -6 3 -11 1 -11 -4 0 -6 5 -11 11 -11 5 0 8 -3 6 -7
-3 -5 0 -19 6 -33 5 -14 9 -33 8 -42 -1 -10 3 -18 10 -18 7 0 9 -3 6 -7 -4 -3
-1 -13 6 -21 9 -13 9 -14 0 -8 -9 5 -11 2 -7 -8 3 -9 10 -16 14 -16 5 0 7 -9
5 -20 -2 -11 1 -20 6 -20 6 0 7 -4 4 -10 -3 -5 -1 -10 5 -10 6 0 9 -4 5 -9 -3
-5 1 -15 8 -23 8 -7 13 -21 11 -31 -1 -9 2 -17 6 -17 5 0 7 -9 5 -20 -2 -11 0
-18 6 -15 5 4 9 -1 9 -9 0 -9 4 -16 9 -16 6 0 8 -9 6 -19 -2 -11 3 -22 11 -25
8 -3 11 -12 7 -22 -4 -12 -3 -15 5 -10 11 6 14 -1 12 -29 -1 -3 6 -13 15 -21
8 -9 13 -19 10 -24 -3 -4 2 -10 10 -14 8 -3 15 -12 15 -21 0 -8 5 -15 11 -15
5 0 7 -4 4 -10 -3 -5 -1 -10 5 -10 6 0 8 -4 5 -10 -3 -5 -1 -10 4 -10 6 0 11
-7 11 -15 0 -9 7 -18 15 -21 8 -4 12 -10 9 -15 -3 -5 0 -9 6 -9 6 0 8 -5 5
-10 -3 -6 1 -13 9 -16 9 -3 16 -12 16 -20 0 -8 3 -14 8 -14 4 0 13 -14 20 -30
14 -31 35 -39 48 -18 5 7 3 8 -6 3 -10 -6 -11 -4 -4 6 11 18 12 39 2 61 -5 9
-4 19 1 22 12 8 11 56 -2 56 -6 0 -2 7 9 15 16 13 17 16 4 25 -8 5 -10 10 -5
10 6 0 10 27 10 60 0 33 3 60 6 60 3 0 5 14 4 30 -1 17 2 30 7 30 5 0 4 10 -3
21 -9 17 -8 20 2 14 9 -6 11 -3 6 8 -3 9 -2 19 4 23 6 3 8 12 5 20 -3 8 0 14
6 14 7 0 7 4 -1 13 -8 11 -6 18 9 32 11 10 20 15 20 10 0 -4 -8 -14 -17 -21
-17 -12 -17 -13 2 -8 18 4 20 0 21 -40 1 -32 -2 -44 -10 -39 -6 4 -6 0 2 -9 7
-9 14 -34 16 -57 1 -22 9 -48 17 -57 9 -12 10 -15 2 -10 -7 4 -13 3 -13 -3 0
-5 5 -13 10 -16 6 -4 8 -15 5 -25 -3 -10 -2 -21 2 -23 5 -3 10 -20 11 -37 1
-18 6 -40 11 -49 5 -9 7 -24 6 -34 -2 -10 1 -14 8 -10 6 4 8 0 4 -10 -4 -10
-1 -17 5 -17 6 0 8 -3 5 -7 -4 -3 -2 -12 4 -19 6 -8 9 -21 5 -29 -3 -8 -1 -15
5 -15 6 0 9 -6 6 -14 -3 -8 -1 -16 5 -18 6 -2 13 -15 15 -29 7 -50 9 -58 22
-73 8 -9 10 -16 5 -16 -5 0 -4 -4 1 -8 17 -12 41 -47 28 -38 -18 10 -16 -2 2
-21 8 -8 13 -19 10 -24 -4 -5 -1 -9 5 -9 6 0 8 -4 5 -10 -3 -5 1 -10 11 -10
13 0 14 -3 5 -14 -12 -15 -10 -18 22 -29 11 -4 16 -3 12 3 -3 6 -1 10 5 10 6
0 8 5 5 10 -3 6 -1 10 4 10 15 0 51 37 44 44 -4 3 1 6 10 6 10 0 17 7 17 15 0
8 6 14 13 12 6 -1 11 4 10 11 -2 6 2 12 7 12 6 0 15 11 22 25 6 13 15 22 19
19 8 -5 13 10 10 28 0 5 2 7 7 5 8 -2 51 39 53 51 1 4 5 6 11 4 5 -1 6 2 3 8
-4 6 3 20 15 30 12 10 19 24 15 29 -4 7 0 8 10 5 9 -4 15 -3 13 2 -5 14 28 55
37 46 4 -4 5 1 2 11 -4 9 -2 17 4 17 6 0 8 4 5 8 -3 5 3 14 14 22 10 7 16 20
12 28 -3 10 -1 13 6 8 7 -4 13 -2 13 3 1 6 2 17 3 24 1 6 8 11 15 9 7 -1 10 2
7 7 -4 5 1 16 10 25 8 9 12 21 8 27 -4 8 -3 9 4 5 11 -6 16 6 13 27 0 4 4 7
10 7 5 0 7 5 4 10 -3 6 -1 10 5 10 7 0 9 7 6 16 -3 8 -2 12 4 9 6 -3 11 -1 11
4 1 6 2 17 3 24 1 6 8 11 16 9 11 -3 11 0 0 12 -9 12 -9 16 -1 16 7 0 10 4 7
9 -3 5 1 12 10 15 9 4 14 13 10 21 -3 8 -1 15 4 15 6 0 10 7 10 16 0 9 5 12
13 8 7 -5 6 0 -3 11 -9 11 -10 16 -2 11 12 -7 16 4 13 33 -2 8 2 10 10 5 9 -5
10 -2 6 9 -3 9 -2 19 3 22 6 4 10 15 10 26 0 11 4 17 10 14 6 -3 7 1 4 9 -3 9
-1 16 6 16 6 0 9 4 6 8 -2 4 -1 14 4 22 5 9 5 19 -2 27 -8 10 -7 12 5 8 8 -4
18 -2 22 4 3 6 0 11 -7 11 -8 1 -7 5 5 14 11 8 14 17 8 20 -6 4 -5 16 4 33 8
15 12 30 9 35 -3 4 -1 8 3 8 5 0 10 9 11 20 1 11 3 29 4 40 1 11 6 20 10 20 4
0 5 9 3 20 -2 11 0 22 5 25 4 3 7 16 5 30 -2 21 0 23 12 14 11 -10 12 -8 4 14
-6 15 -7 29 -2 31 4 3 7 20 6 38 -2 18 2 39 7 46 6 6 8 12 4 12 -3 0 -1 11 4
25 7 17 6 25 -1 25 -8 0 -8 4 -2 13 6 6 10 26 9 44 0 17 2 29 7 26 4 -2 7 1 7
6 0 6 -6 11 -12 11 -10 0 -9 3 1 9 7 5 10 14 7 20 -4 6 -2 11 4 11 6 0 8 5 5
10 -4 6 -12 7 -18 3 -8 -5 -8 -2 1 9 14 17 22 207 11 251 -4 15 -4 27 1 27 5
0 5 13 0 30 -5 18 -5 32 1 36 6 4 3 14 -7 25 -16 18 -16 19 -1 13 10 -4 17 -1
17 6 0 9 4 9 17 -1 11 -10 14 -10 9 -1 -6 11 5 17 27 13 4 0 7 3 7 9 0 6 3 9
8 8 4 0 22 6 41 14 22 10 29 17 20 21 -10 4 -9 6 3 6 10 1 22 10 28 21 6 11
16 17 22 14 7 -5 9 -1 5 9 -3 10 -2 17 3 17 5 0 6 7 3 17 -4 11 -3 14 5 9 8
-5 12 0 12 13 0 14 5 19 15 15 13 -5 14 -2 5 20 -6 18 -6 25 0 21 9 -5 16 41
11 69 -1 4 3 14 9 21 8 9 8 15 0 20 -6 3 -8 10 -5 15 3 5 1 12 -5 15 -6 4 -8
16 -4 27 4 14 2 18 -5 14 -7 -5 -11 3 -11 23 0 20 -8 35 -22 45 -12 9 -19 16
-15 16 4 0 -5 13 -20 28 -15 16 -31 27 -35 25 -5 -2 -8 3 -8 12 0 9 -4 13 -10
10 -5 -3 -10 -1 -10 4 0 6 -7 11 -15 11 -8 0 -15 5 -15 11 0 5 -4 8 -9 4 -5
-3 -13 0 -16 6 -4 5 -13 8 -21 5 -8 -3 -17 1 -21 10 -5 13 -7 13 -14 2 -7 -10
-9 -10 -9 0 0 6 -5 12 -11 12 -5 0 -7 -4 -4 -10 3 -6 -1 -7 -9 -4 -9 3 -13 11
-9 18 3 6 -3 3 -14 -7 -19 -17 -22 -17 -37 -2 -12 12 -16 13 -16 3 0 -13 -30
38 -33 57 -1 6 -10 17 -19 26 -10 9 -15 19 -11 23 3 3 -1 6 -11 6 -9 0 -14 5
-11 10 3 6 -1 10 -10 10 -9 0 -14 4 -11 8 3 5 -4 15 -15 22 -19 15 -28 36 -9
25 6 -3 10 -1 10 5 0 6 5 8 10 5 6 -3 10 0 11 7 0 11 2 11 6 0 4 -10 10 -9 26
5 14 12 18 13 12 3 -5 -9 1 -7 15 5 15 13 21 15 16 5 -4 -8 0 -6 8 4 9 11 16
16 16 12 0 -5 7 -3 15 4 8 6 19 9 25 5 5 -3 10 1 10 9 0 10 6 13 17 9 11 -4
14 -3 9 5 -6 11 -3 12 19 12 10 0 142 135 138 141 -1 4 4 10 13 13 8 3 12 10
9 16 -6 10 7 14 34 11 8 -2 10 3 6 11 -3 7 -1 6 7 -3 7 -8 21 -18 31 -22 10
-4 15 -12 12 -17 -4 -6 -3 -10 2 -9 22 4 33 -3 33 -18 0 -15 2 -16 10 -3 8 13
10 13 10 -2 0 -12 5 -16 18 -11 9 3 14 2 10 -2 -9 -10 32 -41 47 -37 5 2 7 1
3 -3 -8 -8 24 -43 35 -38 4 3 6 1 5 -4 -2 -5 23 -33 54 -62 32 -30 55 -58 52
-62 -3 -5 2 -9 10 -9 9 0 22 -12 30 -27 8 -16 29 -44 48 -63 38 -39 74 -91 70
-102 -1 -5 2 -8 8 -8 5 0 10 -7 10 -15 0 -9 6 -18 14 -21 8 -3 20 -19 26 -35
7 -16 17 -29 23 -29 6 0 7 -3 4 -7 -4 -3 1 -12 11 -20 10 -9 11 -12 2 -7 -11
6 -10 2 3 -13 9 -11 14 -23 10 -26 -3 -4 -1 -7 6 -7 7 0 9 -4 6 -10 -3 -5 -1
-10 6 -10 6 0 9 -8 6 -20 -3 -11 0 -18 6 -17 6 1 11 -4 12 -11 0 -7 6 -17 14
-21 10 -6 10 -10 1 -16 -8 -5 -5 -12 10 -22 11 -8 20 -20 19 -26 -4 -29 2 -58
10 -53 5 3 9 -4 8 -17 -1 -29 6 -50 18 -59 5 -4 10 -20 10 -35 0 -15 4 -34 9
-41 4 -7 5 -20 2 -28 -3 -8 1 -17 10 -21 13 -5 13 -7 2 -14 -7 -5 -8 -9 -3 -9
6 0 11 -19 12 -42 1 -23 5 -44 10 -45 5 -2 8 -23 7 -48 -1 -28 2 -42 8 -39 6
4 6 -1 -1 -13 -7 -14 -7 -23 1 -31 9 -9 9 -12 -1 -12 -7 0 -9 -5 -5 -12 4 -7
9 -26 10 -43 1 -16 2 -32 4 -35 2 -5 1 -28 -3 -127 -1 -24 -5 -43 -9 -43 -5 0
-8 -4 -8 -10 0 -5 8 -6 18 -3 15 6 15 5 2 -11 -8 -10 -15 -41 -17 -69 -1 -27
-7 -55 -12 -60 -7 -7 -7 -15 0 -24 9 -10 8 -13 -2 -13 -11 0 -11 -2 1 -10 11
-7 11 -10 2 -10 -7 0 -11 -4 -8 -9 3 -4 -1 -17 -8 -27 -11 -15 -12 -22 -3 -33
10 -12 9 -13 -2 -6 -11 6 -13 4 -8 -8 3 -9 2 -19 -3 -22 -5 -3 -7 -12 -3 -20
3 -8 0 -15 -6 -15 -6 0 -8 -7 -5 -15 4 -8 1 -15 -5 -15 -6 0 -8 -7 -4 -17 5
-12 3 -14 -8 -8 -12 8 -12 6 0 -8 11 -13 11 -17 1 -17 -8 0 -10 -3 -7 -7 4 -3
-1 -12 -11 -20 -9 -8 -11 -12 -4 -8 6 3 12 2 12 -3 0 -6 -8 -13 -17 -16 -15
-6 -15 -8 -3 -16 10 -7 11 -10 3 -10 -7 0 -13 -9 -13 -20 0 -11 -5 -20 -11
-20 -6 0 -9 -7 -5 -15 3 -8 1 -15 -4 -15 -5 0 -12 -10 -16 -22 -4 -13 -12 -26
-18 -30 -8 -5 -7 -8 2 -8 13 0 11 -3 -24 -43 -6 -7 -10 -20 -8 -30 1 -9 -2
-15 -7 -11 -8 5 -13 -10 -10 -29 1 -5 -8 -11 -20 -14 -16 -4 -17 -8 -7 -14 10
-7 10 -9 1 -9 -7 0 -13 -7 -13 -15 0 -8 -5 -15 -11 -15 -5 0 -8 -4 -5 -9 3 -5
-1 -12 -10 -15 -8 -3 -12 -10 -9 -16 3 -6 -1 -13 -9 -16 -9 -3 -16 -10 -16
-15 0 -6 -5 -15 -10 -22 -6 -7 -18 -21 -26 -32 -9 -11 -12 -13 -8 -5 4 8 4 12
0 8 -4 -3 -8 -10 -8 -15 0 -19 -20 -43 -30 -37 -7 4 -8 3 -4 -5 4 -6 1 -14 -8
-17 -8 -3 -18 -14 -21 -25 -4 -11 -11 -17 -16 -14 -5 4 -9 2 -9 -3 0 -13 -98
-111 -104 -104 -3 3 -6 0 -6 -6 0 -6 -9 -13 -20 -17 -11 -3 -19 -9 -19 -13 3
-18 -2 -32 -10 -30 -5 2 -17 -6 -26 -17 -9 -11 -13 -13 -9 -5 4 8 -9 -1 -29
-19 -21 -19 -37 -31 -37 -27 0 5 -8 -1 -17 -12 -10 -12 -25 -22 -33 -24 -8 -2
-22 -10 -30 -18 -8 -8 -22 -16 -30 -18 -8 -2 -18 -8 -21 -14 -3 -5 -10 -10
-15 -10 -18 -1 -34 -10 -30 -17 3 -4 -5 -8 -17 -8 -12 -1 -23 -7 -25 -13 -2
-5 -8 -8 -13 -4 -5 3 -9 0 -9 -5 0 -6 -3 -10 -7 -9 -5 1 -21 -5 -38 -12 -16
-7 -33 -13 -37 -12 -5 1 -8 -3 -8 -9 0 -6 -6 -9 -14 -6 -8 3 -17 -1 -20 -9 -3
-9 -10 -13 -15 -9 -5 3 -12 1 -16 -5 -4 -6 -10 -8 -15 -5 -4 3 -13 -2 -20 -10
-7 -8 -16 -12 -22 -9 -5 3 -15 0 -23 -6 -8 -6 -19 -9 -25 -5 -5 3 -10 1 -10
-5 0 -6 -4 -8 -10 -5 -5 3 -10 0 -10 -7 0 -9 -3 -9 -10 2 -5 8 -10 10 -10 4 0
-6 -6 -11 -12 -12 -43 -3 -58 -7 -58 -15 0 -5 -6 -7 -14 -4 -8 3 -17 3 -21 -1
-3 -4 -18 -8 -33 -9 -67 -7 -81 -9 -87 -15 -3 -3 -19 -4 -36 -2 -22 3 -28 0
-23 -9 5 -8 2 -7 -9 2 -13 10 -17 10 -17 1 0 -9 -4 -9 -17 1 -9 8 -14 9 -10 3
5 -8 -6 -11 -36 -9 -23 1 -48 -2 -54 -8 -8 -6 -13 -6 -13 0 0 11 -29 11 -48
-1 -6 -4 -12 -3 -12 1 0 5 -15 8 -32 8 -18 -1 -41 2 -52 8 -13 6 -16 6 -12 -2
9 -14 4 -14 -28 -1 -18 6 -26 6 -26 -1 0 -6 -6 -7 -12 -2 -7 4 -21 6 -30 5
-10 -2 -18 2 -18 7 0 13 -22 10 -32 -4 -5 -6 -8 -6 -8 1 0 7 -14 11 -34 10
-19 -1 -32 2 -30 6 3 5 0 8 -5 8 -6 0 -11 -6 -11 -12 0 -10 -3 -9 -9 1 -5 8
-14 10 -21 6 -8 -5 -11 -4 -6 3 4 6 -1 11 -11 11 -38 1 -53 5 -53 12 0 5 -7 5
-17 2 -9 -4 -14 -2 -11 3 4 5 -4 10 -15 11 -36 3 -60 9 -92 23 -16 7 -33 13
-37 12 -5 -1 -8 2 -8 7 0 6 -9 8 -19 6 -15 -3 -18 1 -14 12 4 11 3 14 -6 9
-18 -12 -61 2 -61 19 0 8 -5 15 -11 15 -5 0 -7 -5 -3 -12 4 -7 -6 -2 -23 10
-17 12 -33 19 -37 15 -3 -3 -6 -2 -6 3 0 6 -16 16 -35 24 -19 8 -35 17 -35 22
0 4 -6 7 -12 5 -7 -1 -12 3 -11 10 2 7 -4 10 -12 7 -9 -4 -18 1 -21 11 -5 13
-9 14 -15 3 -7 -10 -9 -11 -9 0 0 8 -5 10 -12 6 -10 -6 -10 -5 0 8 10 13 9 15
-13 10 -15 -2 -25 0 -25 7 0 7 5 9 12 5 7 -4 8 -3 4 5 -4 6 -11 9 -15 7 -4 -3
-17 3 -28 14 -12 10 -24 16 -27 13 -3 -4 -6 1 -6 11 0 9 -4 15 -9 12 -5 -4
-37 21 -70 53 -34 33 -61 58 -61 55 0 -2 -19 15 -43 39 -24 23 -42 43 -41 45
4 6 -36 42 -47 42 -5 0 -7 5 -4 10 3 6 -1 13 -9 16 -9 3 -16 10 -16 16 0 5
-11 20 -25 34 -14 14 -25 29 -25 33 0 5 -13 24 -30 42 -16 19 -30 42 -30 51 0
9 -5 20 -12 24 -7 5 -8 2 -3 -7 5 -8 4 -11 -1 -6 -5 5 -9 12 -9 15 0 17 -28
72 -36 72 -5 0 -9 9 -9 20 0 11 -4 20 -10 20 -5 0 -10 7 -10 16 0 19 -31 77
-44 83 -4 2 -2 7 5 12 11 7 10 9 -3 9 -12 0 -16 6 -13 20 2 13 0 18 -6 14 -7
-4 -9 1 -7 12 2 11 -3 25 -12 32 -13 11 -13 12 0 6 13 -7 13 -6 0 10 -13 17
-20 35 -22 64 -1 6 -4 12 -8 12 -4 0 -7 6 -8 13 -1 6 -4 26 -7 42 -3 17 -7 36
-7 43 -1 6 -6 12 -11 12 -5 0 -7 11 -5 25 4 18 1 25 -11 26 -10 0 -12 2 -3 6
6 2 12 9 12 14 0 6 -3 8 -8 5 -4 -2 -7 11 -6 30 1 20 -3 34 -10 34 -7 0 -7 3
-1 8 14 10 17 32 4 32 -5 0 -9 8 -7 18 1 9 -1 23 -5 30 -5 6 -4 12 2 12 7 0 7
8 1 26 -13 32 -13 37 1 28 8 -4 8 -1 2 12 -6 11 -9 33 -8 49 0 17 -3 36 -8 43
-5 6 -6 12 -1 12 5 0 9 30 9 68 -1 37 1 71 4 77 9 17 8 46 -1 51 -5 3 -2 15 8
25 12 14 13 19 4 19 -9 0 -7 7 6 22 10 12 14 18 8 15 -7 -4 -14 0 -17 8 -4 8
-1 12 6 9 8 -3 13 8 14 28 1 18 3 43 4 55 1 13 5 20 10 17 5 -3 9 2 9 11 0 10
-5 13 -12 9 -9 -6 -9 -3 0 9 8 9 10 22 6 28 -5 8 -3 9 6 4 10 -6 12 -3 8 13
-4 15 0 25 10 32 12 7 13 9 3 10 -10 0 -11 3 -2 13 6 8 8 17 4 20 -3 4 -1 7 6
7 8 0 11 7 7 15 -3 9 1 18 10 22 13 5 13 7 2 14 -8 6 -9 9 -1 9 10 0 27 49 23
66 -1 4 4 10 11 15 11 7 18 25 21 56 1 6 8 9 15 6 9 -4 13 0 12 8 -4 20 11 59
22 59 6 0 8 4 4 9 -3 5 1 16 9 24 8 8 12 17 9 21 -4 3 -1 6 6 6 7 0 9 5 6 10
-3 6 -1 10 4 10 6 0 11 5 11 11 0 7 8 18 17 26 12 10 13 12 3 8 -8 -4 -6 1 4
9 11 9 16 16 10 16 -5 0 5 12 21 26 17 14 24 23 18 19 -17 -8 -16 3 1 20 7 8
16 11 20 8 3 -4 6 1 6 10 0 9 9 26 20 37 11 11 21 23 22 28 2 4 6 6 10 5 5 -2
8 6 8 18 0 11 5 17 10 14 6 -3 10 1 10 10 0 9 4 14 8 11 5 -3 16 9 26 25 11
19 23 28 32 25 9 -3 12 -1 9 4 -3 6 -2 10 4 10 5 0 12 9 16 20 3 11 12 19 18
17 7 -1 11 4 10 11 -3 11 9 16 30 13 4 0 7 6 7 15 0 8 4 12 10 9 5 -3 10 -1
10 5 0 13 30 46 30 33 0 -4 6 -1 13 8 7 8 20 18 30 22 10 4 15 11 12 17 -6 9
7 14 20 8 2 -2 12 7 20 20 9 12 21 20 26 17 5 -4 12 1 15 9 3 9 10 13 15 10 5
-3 9 -1 9 3 0 11 60 47 60 36 0 -4 10 3 21 17 11 14 17 18 13 11 -4 -9 6 -5
24 8 18 12 37 19 43 15 8 -4 9 -3 5 4 -6 11 6 16 27 13 4 0 7 3 7 8 0 9 38 22
53 18 5 -1 13 6 19 16 7 14 13 15 23 7 10 -8 16 -7 22 4 5 9 19 17 32 19 12 2
27 10 32 18 7 12 9 12 9 -1 0 -13 1 -13 10 0 5 8 10 11 10 6 0 -5 6 -4 13 1 6
6 22 9 34 8 12 -1 20 2 18 6 -3 4 2 9 10 13 8 3 15 0 15 -7 0 -8 3 -8 9 2 5 7
14 10 20 7 6 -4 11 -2 11 4 0 6 5 8 10 5 6 -3 10 -1 10 6 0 8 4 8 16 -2 10 -8
18 -9 22 -3 12 18 39 23 52 11 10 -9 11 -9 6 1 -8 13 -3 14 57 14 25 0 35 3
31 11 -5 8 -2 8 7 0 7 -7 17 -13 22 -13z m252 -504 c11 5 16 4 12 -3 -3 -5 0
-10 8 -10 8 0 12 3 10 7 -2 4 2 7 10 7 8 0 11 -5 8 -10 -4 -6 0 -8 9 -4 9 3
19 3 22 -1 6 -5 20 -8 64 -14 6 -1 12 -6 12 -11 0 -5 7 -7 15 -4 8 4 17 1 21
-5 5 -7 2 -8 -6 -3 -8 5 -11 4 -6 -3 4 -6 13 -9 20 -6 7 3 20 -2 29 -10 8 -8
17 -12 21 -9 3 4 6 1 6 -5 0 -7 6 -12 14 -12 7 0 22 -11 32 -25 10 -14 23 -25
29 -25 13 0 55 -44 55 -58 0 -5 11 -17 24 -28 14 -10 23 -21 20 -26 -3 -4 0
-8 6 -8 7 0 9 -7 6 -16 -3 -8 -2 -13 3 -10 7 5 33 -39 33 -54 0 -3 6 -13 15
-22 8 -9 12 -22 8 -27 -3 -6 -1 -11 5 -11 7 0 9 -8 5 -20 -4 -13 -1 -22 10
-26 12 -5 13 -9 4 -20 -6 -8 -7 -14 -2 -14 5 0 10 -15 11 -32 1 -18 3 -54 5
-80 2 -27 0 -48 -3 -48 -4 0 -6 -16 -5 -35 1 -20 -1 -38 -6 -40 -4 -3 -5 -15
-1 -27 4 -16 2 -19 -8 -13 -10 6 -12 4 -7 -7 3 -9 3 -19 -1 -22 -3 -4 -7 -16
-9 -28 -2 -12 -7 -25 -11 -28 -10 -6 -26 -42 -24 -52 1 -5 -3 -8 -8 -8 -6 0
-10 -7 -10 -15 0 -8 -4 -15 -10 -15 -5 0 -10 -6 -10 -13 0 -7 -11 -21 -25 -31
-13 -10 -22 -22 -19 -27 3 -5 0 -9 -6 -9 -6 0 -32 -21 -57 -47 -26 -27 -43
-41 -39 -33 5 9 2 8 -7 -2 -8 -10 -17 -15 -20 -11 -4 3 -7 1 -7 -6 0 -7 -4 -9
-10 -6 -5 3 -17 -3 -27 -14 -14 -16 -20 -18 -32 -8 -12 9 -13 9 -7 0 6 -12 -5
-18 -26 -14 -5 0 -8 -4 -8 -10 0 -5 -4 -8 -9 -5 -4 3 -16 -1 -27 -8 -10 -8
-24 -11 -32 -8 -8 3 -18 -1 -23 -9 -6 -11 -9 -11 -9 -1 0 10 -5 10 -20 2 -14
-8 -20 -8 -20 0 0 6 -4 9 -8 6 -17 -10 -71 -16 -76 -8 -3 5 -23 7 -45 5 -22
-1 -42 1 -45 6 -4 5 -15 7 -26 4 -11 -3 -20 -1 -20 3 0 5 -15 10 -32 11 -18 2
-34 7 -36 13 -2 6 -8 7 -13 4 -6 -3 -19 2 -29 11 -10 9 -24 14 -31 9 -8 -4
-10 -3 -5 4 4 7 1 12 -9 12 -8 0 -18 7 -21 15 -4 8 -10 15 -15 15 -8 0 -58 42
-82 69 -5 5 -24 26 -43 46 -19 20 -32 40 -29 46 4 5 1 9 -4 9 -6 0 -11 7 -11
15 0 8 -5 15 -11 15 -5 0 -8 4 -5 9 4 5 1 11 -4 13 -10 3 -16 21 -19 51 -1 5
-7 5 -13 1 -9 -5 -9 -2 1 9 9 12 10 17 2 17 -7 0 -9 5 -6 10 4 6 1 17 -5 25
-7 8 -12 30 -12 50 0 24 -4 33 -11 28 -7 -4 -6 1 2 10 11 14 11 17 0 17 -11 0
-11 2 1 10 8 5 10 10 3 10 -14 0 -9 89 8 152 6 24 13 52 15 62 2 11 9 23 16
28 10 6 9 8 -2 8 -13 0 -13 2 -1 9 8 5 16 17 17 27 2 9 8 20 14 24 7 4 12 11
13 16 1 5 5 8 9 7 4 -2 5 6 3 16 -2 11 3 22 12 25 8 4 13 13 9 21 -3 8 -2 14
2 12 11 -3 62 50 55 57 -4 3 1 6 10 6 9 0 17 5 17 10 0 6 3 9 8 8 4 -2 9 2 11
7 6 15 35 34 43 29 5 -3 8 -1 8 4 0 10 70 48 83 44 4 -1 7 3 7 9 0 6 7 9 15 5
8 -3 15 -1 15 5 0 6 5 7 10 4 6 -3 10 -1 10 5 0 6 4 8 10 5 5 -3 20 0 32 8 15
8 52 13 100 13 46 -1 78 3 78 9 0 6 4 4 8 -3 5 -8 16 -10 27 -6z m683 -399 c6
-5 17 -5 22 -2 6 3 10 1 10 -5 0 -6 8 -14 18 -17 22 -9 36 -23 45 -46 4 -11
12 -15 19 -11 9 5 9 3 -1 -9 -9 -12 -10 -17 -2 -17 7 0 10 -4 6 -9 -3 -5 -1
-12 3 -15 13 -8 6 -54 -10 -73 -8 -11 -9 -14 -1 -10 9 6 10 1 2 -23 -6 -16
-15 -27 -20 -24 -5 3 -9 -2 -9 -10 0 -8 -9 -18 -20 -21 -11 -3 -20 -11 -20
-17 0 -6 -3 -8 -7 -5 -3 4 -13 1 -21 -6 -13 -10 -15 -9 -9 6 3 9 2 17 -3 17
-5 0 -6 12 -3 28 3 15 6 37 6 50 1 12 5 22 10 22 5 0 1 8 -9 17 -11 11 -13 18
-5 21 6 2 9 8 5 13 -11 18 -13 49 -3 49 6 0 3 7 -5 16 -18 18 -21 28 -5 19 7
-5 7 -1 0 14 -29 57 -30 59 -18 57 7 -1 18 -5 25 -9z m-1492 -74 c-3 -12 -8
-28 -12 -34 -3 -6 0 -15 7 -20 8 -5 9 -9 3 -9 -6 0 -9 -27 -7 -72 2 -82 5 -97
17 -117 6 -10 5 -12 -2 -7 -16 9 -15 -7 0 -22 9 -9 8 -12 -8 -12 -11 0 -25 5
-32 12 -7 7 -12 9 -12 4 0 -4 -7 -1 -15 8 -8 8 -15 21 -15 28 0 11 -2 11 -9 0
-6 -10 -12 -4 -24 19 -8 18 -13 37 -11 41 3 4 1 8 -5 8 -10 0 -9 46 2 56 3 4
2 14 -3 24 -6 12 -3 21 11 34 11 9 17 21 14 26 -3 6 0 10 8 10 8 0 18 7 21 16
3 8 10 13 15 10 5 -3 11 1 14 8 3 8 15 14 26 13 16 -1 20 -7 17 -24z m487
-1568 c4 -8 3 -16 -1 -19 -4 -3 -9 4 -9 15 -2 23 3 25 10 4z"/>
<path d="M1973 3032 c5 -7 -20 -11 -81 -12 -16 0 -21 -4 -16 -13 5 -7 0 -6
-11 3 -11 9 -16 10 -11 3 4 -8 1 -13 -8 -13 -9 0 -16 -4 -16 -10 0 -5 -5 -10
-11 -10 -5 0 -7 5 -3 12 4 7 3 8 -5 4 -6 -4 -9 -11 -6 -16 3 -5 -3 -13 -12
-19 -12 -7 -13 -10 -4 -11 8 0 11 -7 8 -20 -3 -13 0 -20 9 -20 8 0 14 -4 14
-8 0 -4 16 -6 35 -4 19 2 35 8 35 12 0 4 14 7 31 6 16 -1 33 2 36 7 3 4 12 6
20 3 8 -3 11 -1 8 4 -9 14 8 12 24 -2 11 -10 13 -10 7 0 -4 6 -2 12 3 12 6 0
11 -4 11 -10 0 -5 5 -10 11 -10 5 0 7 5 3 11 -4 7 1 7 16 -1 12 -6 24 -9 27
-6 3 3 12 -2 20 -12 9 -10 11 -11 7 -2 -7 13 -5 13 9 2 9 -8 21 -11 27 -7 5 3
10 2 10 -2 0 -5 9 -9 19 -9 11 0 17 4 15 8 -3 4 0 8 7 8 7 0 10 3 6 6 -3 4 1
13 9 21 13 13 12 18 -13 43 -18 17 -32 24 -39 18 -13 -10 -38 15 -26 27 4 4
-2 3 -14 -3 -15 -8 -24 -8 -32 0 -7 7 -12 9 -12 5 0 -3 -12 -2 -26 3 -18 7
-23 7 -18 -2 4 -7 3 -8 -5 -4 -18 11 -63 18 -58 8z"/>
<path d="M2244 2677 c-5 -14 -9 -15 -23 -5 -9 7 -13 9 -9 4 4 -4 -2 -17 -13
-29 -10 -11 -19 -28 -20 -36 0 -9 -2 -26 -3 -38 -2 -13 1 -23 6 -23 4 0 8 -6
8 -13 0 -14 28 -40 51 -46 49 -15 132 20 115 48 -4 5 -1 13 5 17 8 5 9 3 4 -6
-5 -9 -4 -11 4 -6 9 6 9 11 -1 24 -9 10 -9 13 -1 9 8 -5 11 0 10 13 -1 11 -5
20 -10 20 -4 0 -6 3 -3 8 2 4 -2 18 -10 32 -7 14 -13 19 -14 11 0 -11 -4 -9
-15 5 -8 10 -15 15 -15 10 0 -5 -7 -2 -17 5 -14 12 -17 12 -21 0 -4 -11 -6
-11 -13 0 -6 11 -9 10 -15 -4z"/>
<path d="M1709 2661 c0 -9 -3 -11 -5 -4 -7 16 -34 5 -34 -13 0 -8 -5 -14 -11
-14 -5 0 -7 -4 -4 -10 3 -5 2 -10 -2 -10 -5 0 -9 -13 -9 -30 -1 -16 3 -30 10
-30 6 0 4 -5 -4 -10 -13 -8 -12 -10 3 -10 9 0 17 -6 17 -14 0 -19 70 -46 91
-35 9 4 19 5 23 2 3 -3 6 -1 6 6 0 7 4 10 8 7 11 -7 43 49 47 80 1 13 -2 24
-7 24 -5 0 -6 4 -3 10 7 11 -14 54 -22 46 -4 -3 -12 -1 -19 5 -6 5 -28 11 -48
13 -28 3 -36 0 -37 -13z m115 -27 c3 -8 2 -12 -4 -9 -6 3 -10 10 -10 16 0 14
7 11 14 -7z"/>
</g>
</svg>
